Patient4_TMGait_0pt2_02_left_12_EMG.mot
version=1
nRows=20
nColumns=33
inDegrees=no
endheader
time	1LAddLong	2LGlutMax	3LGlutMed	4LIliopsoas	5LSemiMemb	6LBicFemLong	7LRecFem	8LVastMed	9LVastLat	10LGasMed	11LTibAnt	12lTibPost	13LPeroneusLong	14LSol	15LExtDigLong	16LFlexDigLong	17RAddLong	18RGlutMax	19RGlutMed	20RIliopsoas	21RSemiMemb	22RBicFemLong	23RRecFem	24RVastMed	25RVastLat	26RGasMed	27RTibAnt	28RTibPost	29RPeroneusLong	30RSol	31RExtDigLong	32RFlexDigLong
29.883	-0.001984	0.62485	0.017395	0.003967	-0.005951	0.001526	-0.063934	0.007782	-0.012054	-0.015564	0.20416	0.011444	0.059967	0.14236	0.01709	0.027924	-0.085144	0.057678	0.9932	-0.054779	0.25146	-0.32471	0.12726	0.17288	0.27603	-0.007019	-0.010681	0.021362	-0.33646	-0.058441	-0.001068	-0.014343
29.884	0.004425	0.62912	0.05188	0.032501	-0.000153	-0.007477	-0.076599	0.008392	-0.011139	-0.020447	-0.19058	0.009613	0.031281	0.13947	-0.13153	0.028229	-0.050659	0.036621	1.8744	-0.1033	0.38666	-0.34805	0.2504	0.11475	0.20248	0.000763	0.082245	-0.005646	-1.0422	0.016937	-0.001831	-0.011902
29.885	0.007782	0.58426	0.00946	0.027161	-0.001221	-0.02594	-0.094757	0.011597	-0.006256	0.003052	-0.14374	0.001678	0.064087	0.057526	0.039978	0.004578	-0.078735	0.000916	1.3667	0.040436	0.121	-0.23697	0.31815	0.23193	0.18372	0.004272	-0.059357	-0.019989	0.99121	0.043335	-0.000153	-0.019836
29.886	0.00824	0.54642	-0.028381	0.012665	0.003662	-0.04303	-0.084686	0.010376	-0.01358	0.002594	-0.094147	0.007324	0.11322	0.003204	-0.24307	-0.007019	-0.079041	-0.10376	1.187	0.06134	-0.14465	-0.080414	0.43228	0.17502	0.014648	-0.007935	-0.079803	-0.025635	0.52368	0.086365	-0.001373	-0.013733
29.887	0.011902	0.50461	0.048523	0.005035	0.00824	-0.049896	-0.065155	0.013123	-0.009918	0.003967	0.13809	0.006561	0.057373	0.049591	-0.07782	-0.010834	-0.032654	-0.1149	-0.16815	0.076141	-0.065765	0.023804	0.5043	0.30685	-0.12985	0.01297	-0.089111	-0.024872	-0.99533	-0.02243	-0.005493	-0.015717
29.888	0.01709	0.43533	0.028229	-0.001373	0.007629	-0.043793	-0.080719	0.020142	-0.014038	0.011749	0.070801	-0.010529	0.068512	-0.036926	-0.14206	-0.019836	0.026245	-0.098572	-0.72067	0.06897	0.015411	0.051117	0.6221	0.11841	-0.1152	0.037231	-0.084839	-0.02594	0.037994	-0.031281	-0.002594	-0.013733
29.889	0.009766	0.38864	0.024567	0.007172	0.008392	-0.053406	-0.09491	0.015717	-0.007629	-0.026245	-0.18036	-0.05722	0.14191	-0.11917	-0.41107	0.012207	0.023651	-0.1033	-0.50797	0.074463	0.080719	0.010529	0.59891	0.16541	0.093994	0.023346	-0.054169	-0.020752	1.0037	0.053253	-0.002136	-0.016022
29.89	0.00946	0.38711	0.045471	0.001526	0.009308	-0.082703	-0.079956	0.012054	-0.006409	-0.032196	-0.21469	0.006256	0.13687	-0.14328	-0.085144	0.027313	-0.014801	-0.14358	0.45883	0.047913	-0.056763	-0.11658	0.51895	0.64682	0.44571	-0.005035	0.003204	-0.004578	0.22644	0.17014	0.001068	-0.014343
29.891	0.005493	0.36072	0.001831	-0.017548	0.006256	-0.094452	-0.097809	0.011444	0.006714	-0.00946	-0.23727	0.006714	0.069427	-0.076141	0.19959	0.042725	-0.057831	-0.10132	0.60089	-0.014343	0.023804	-0.1239	0.3624	0.51315	0.55725	0.008545	-0.017242	0.021667	-0.15411	0.12817	-0.003357	-0.015564
29.892	0.00473	0.38361	-0.005798	-0.036926	0.008698	-0.077972	-0.063629	0.009155	0.003357	0.01297	-0.17303	0.018616	0.036926	-0.042877	0.028534	0.041351	-0.072784	-0.13214	1.2721	-0.13092	0.13428	-0.064392	0.28564	-0.04837	0.39871	0.020905	-0.053711	-0.2243	-0.53711	0.12528	-0.001526	-0.005951
29.893	-0.007477	0.38086	-0.018311	-0.030975	0.005798	-0.065002	-0.068054	0.011444	0.006104	0.007019	0.051575	-0.002899	0.065613	0.025177	-0.041962	0.051117	-0.080261	-0.17349	0.58853	-0.023651	0.059204	-0.15518	0.17044	-0.39963	0.007324	0.021057	-0.046539	-0.25681	-0.65369	0.05127	-0.003052	0.001373
29.894	-0.000916	0.36774	-0.014191	-0.009766	0	-0.06897	-0.061188	0.009613	0.016479	-0.00885	0.26779	0.003204	0.043335	0.053864	-0.10422	0.051575	-0.061188	-0.14862	-0.49271	0.13458	-0.023804	-0.31982	0.012512	-0.54169	-0.46127	-0.043182	0.097046	0.052643	-0.16678	-0.29282	-0.000458	-0.014496
29.895	-0.001373	0.34454	0.035858	0.01236	0.002899	-0.10681	-0.036011	0.009003	0.008087	-0.00473	0.22049	0.003967	0.070953	0.03952	-0.022888	0.058136	-0.041962	-0.14633	-0.88043	0.074615	-0.01709	-0.22308	-0.16754	-0.50461	-0.55039	-0.072021	0.094604	-0.15213	0.78445	-0.53604	0.000305	-0.013733
29.896	0.003052	0.32974	0.037994	0.059967	0.001526	-0.07843	-0.043793	0.005188	-0.000916	-0.017548	0.083008	-0.00885	0.057983	-0.035858	-0.037384	0.070801	-0.012054	-0.031433	-0.3273	-0.028534	-0.010681	-0.14084	-0.46356	-0.65872	-0.33417	-0.042419	0.0737	0.25269	0.70801	-0.17685	0.001984	-0.015106
29.897	0.007019	0.37033	0.027161	0.015869	0.001373	-0.04364	-0.032196	0.00412	-0.006409	-0.005188	0.082703	-0.003967	0.032196	-0.003357	0.055237	0.066223	0.016479	0.031891	-0.61127	-0.040741	-0.023041	-0.13321	-0.39749	-0.31082	0.19608	-0.036163	0.096436	0.1622	-0.003357	0.079498	0.000458	-0.014648
29.898	0.008087	0.36438	0.010376	0.010071	0.001373	0.012665	-0.007782	0.007019	-0.019531	0.014343	0.018311	-0.006561	0.001526	-0.013885	0.24338	0.082855	0.054169	0.031738	-0.76782	-0.077057	0.007629	-0.11063	-0.40817	0.08667	0.33386	-0.054016	0.13519	0.068359	0.28671	0.12802	-0.001831	-0.012665
29.899	0.009613	0.42191	0.033569	0.000458	0.00061	0.018311	0.001068	0.003967	-0.044098	0.013733	-0.02594	-0.045624	-0.023804	0.029602	0.14847	0.061035	0.085449	0.089874	0.22232	0.011444	0.013885	-0.12177	-0.30624	0.18021	0.168	-0.033112	0.058441	0.018311	0.76294	-0.16144	0.00061	0.003967
29.9	0.003815	0.37445	0.006561	0.005646	-0.003357	0.052185	0.002747	0.006256	-0.049591	0.005188	-0.055084	-0.001373	0.012512	0.027618	0.029449	0.071411	0.13245	0.12116	-0.035858	0.027618	-0.13199	-0.13321	-0.2446	-0.25894	-0.17609	0.048523	0.024414	-0.010834	-0.35294	0.000763	-0.004272	-0.004883
29.901	0.00885	0.35385	0.015564	0.026245	-0.002747	0.068207	0.01297	0.00412	-0.042877	-0.006866	-0.13794	0.009766	0.088654	-0.024109	-0.1294	0.11185	0.15137	0.12894	0.4834	-0.053711	-0.30884	-0.40314	-0.37094	-0.60425	-0.10544	0.037842	-0.10284	-0.023956	-0.46661	0.19134	0.000763	-0.007935
29.902	-0.001221	0.34729	0.036774	0.01297	-0.008087	0.074615	-0.009308	0.007324	-0.036774	0.00061	-0.14069	0.013275	0.096436	-0.029449	-0.21881	0.10651	0.14908	0.091858	0.60562	0.027924	-0.42496	-0.59723	-0.33325	-0.46097	-0.0177	0.021973	-0.097809	-0.019073	-1.0883	-0.012817	-0.003662	-0.005188
